PathFileType	4	(X/Y/Z)	/Users/itak/Documents/Research/Walk-IL/dataset/trc/00014_00004.trc
DataRate	CameraRate	NumFrames	NumMarkers	Units	OrigDataRate	OrigDataStartFrame	OrigNumFrames
100.000000	100.000000	4	56	mm	100.000000	68	544
Frame#	Time	LMT1			RPSI			LPSI			L3			STRN			T10			C7			CLAV			RBAK			LBAK			LSHO			LUPA			LAEL			LAOL			LWTS			LWPS			LFRA			LIFD			LHPS			RSHO			RUPA			RAEL			RAOL			RWTS			RWPS			RFRA			RIFD			RHTS			RHPS			RBHD			LFHD			RFHD			LBHD			LHIP			RHIP			RASI			LASI			LKNE			LTHI			LANK			LTIP			LTOE			LMT5			LHEE			RKNE			RANK			RTIP			RTOE			RMT1			RMT5			RHEE			LHTS			RTHI			*53			*54			*55			
		X1	Y1	Z1	X2	Y2	Z2	X3	Y3	Z3	X4	Y4	Z4	X5	Y5	Z5	X6	Y6	Z6	X7	Y7	Z7	X8	Y8	Z8	X9	Y9	Z9	X10	Y10	Z10	X11	Y11	Z11	X12	Y12	Z12	X13	Y13	Z13	X14	Y14	Z14	X15	Y15	Z15	X16	Y16	Z16	X17	Y17	Z17	X18	Y18	Z18	X19	Y19	Z19	X20	Y20	Z20	X21	Y21	Z21	X22	Y22	Z22	X23	Y23	Z23	X24	Y24	Z24	X25	Y25	Z25	X26	Y26	Z26	X27	Y27	Z27	X28	Y28	Z28	X29	Y29	Z29	X30	Y30	Z30	X31	Y31	Z31	X32	Y32	Z32	X33	Y33	Z33	X34	Y34	Z34	X35	Y35	Z35	X36	Y36	Z36	X37	Y37	Z37	X38	Y38	Z38	X39	Y39	Z39	X40	Y40	Z40	X41	Y41	Z41	X42	Y42	Z42	X43	Y43	Z43	X44	Y44	Z44	X45	Y45	Z45	X46	Y46	Z46	X47	Y47	Z47	X48	Y48	Z48	X49	Y49	Z49	X50	Y50	Z50	X51	Y51	Z51	X52	Y52	Z52	X53	Y53	Z53	X54	Y54	Z54	X55	Y55	Z55	X56	Y56	Z56	

69	0.68	1172.769897460938	43.84107208251953	-365.6889038085938	997.16015625	1052.677612304688	-232.4173278808594	982.482177734375	1046.1767578125	-395.7372741699219	983.4751586914062	1111.090209960938	-322.133056640625	1195.933837890625	1313.52001953125	-326.9541931152344	947.8404541015625	1251.859008789062	-324.1346740722656	980.9308471679688	1521.86279296875	-337.6857604980469	1146.275390625	1436.94091796875	-331.7619323730469	938.808837890625	1382.065185546875	-255.9794616699219	966.8948974609375	1478.313232421875	-435.3442687988281	1069.764404296875	1489.75634765625	-509.1879272460938	1044.445556640625	1362.9873046875	-586.076904296875	1050.710571289062	1144.366333007812	-605.9740600585938	995.8751831054688	1132.228637695312	-516.5613403320312	1140.39306640625	892.5913696289062	-547.4117431640625	1063.562744140625	877.476318359375	-589.5582275390625	1064.620727539062	1028.264892578125	-610.2291870117188	1169.38916015625	710.6552734375	-529.1243896484375	1096.702270507812	788.0210571289062	-587.7076416015625	1061.293579101562	1513.300903320312	-162.9621276855469	1051.86767578125	1440.706909179688	-89.19864654541016	1027.701904296875	1170.977416992188	-67.05246734619141	1027.613037109375	1142.902099609375	-163.0284118652344	1164.067016601562	916.1656494140625	-94.61394500732422	1096.714111328125	900.1654663085938	-32.41261291503906	1042.756958007812	1096.3935546875	-51.59637451171875	1188.712768554688	729.0345458984375	-102.7693099975586	1198.3154296875	806.7916870117188	-77.06195831298828	1140.067993164062	801.0723876953125	-29.9910774230957	1018.219665527344	1697.46533203125	-259.8121337890625	1197.618041992188	1735.54296875	-364.5110473632812	1189.213256835938	1732.405639648438	-266.0445556640625	1021.60400390625	1705.255615234375	-403.9678955078125	1072.264770507812	950.2269897460938	-508.4149475097656	1118.055297851562	946.984619140625	-141.1735076904297	1215.56591796875	982.3712768554688	-219.05224609375	1193.624633789062	999.7325439453125	-453.5899353027344	1112.125732421875	505.29248046875	-460.5247802734375	1091.50244140625	641.7335205078125	-495.8166198730469	1005.229675292969	28.9002513885498	-456.3969421386719	1026.545166015625	275.76611328125	-475.5737609863281	1226.548828125	25.4723072052002	-391.3201904296875	1129.451904296875	26.50208473205566	-475.4704284667969	936.387939453125	36.23599624633789	-402.583251953125	1107.25048828125	510.814697265625	-192.0642242431641	975.4329833984375	34.95519638061523	-214.9093475341797	1074.55029296875	391.1405334472656	-192.0813140869141	1206.272094726562	30.66823768615723	-261.3016967773438	1141.73095703125	36.17353057861328	-290.4636840820312	1124.928588867188	29.80146789550781	-194.4416198730469	918.0127563476562	37.58208847045898	-257.9842529296875	1161.697143554688	799.263427734375	-560.3275756835938	1138.791625976562	779.7366943359375	-146.3696594238281	nan	nan	nan	nan	nan	nan	nan	nan	nan	
70	0.6900000000000001	1172.831298828125	43.92919158935547	-365.5622863769531	996.9102783203125	1052.650634765625	-232.2201690673828	982.4180297851562	1046.169799804688	-395.5501403808594	983.3699340820312	1111.103515625	-321.9465942382812	1195.861083984375	1313.55517578125	-326.711181640625	947.8187866210938	1251.897827148438	-324.0110778808594	980.9680786132812	1521.923583984375	-337.5202941894531	1146.2138671875	1436.973876953125	-331.5736694335938	938.7486572265625	1382.148315429688	-255.8209075927734	966.89404296875	1478.377075195312	-435.1772766113281	1069.785400390625	1489.76416015625	-509.0314636230469	1044.53369140625	1363.010864257812	-585.9232177734375	1050.834594726562	1144.396850585938	-605.8217163085938	995.909423828125	1132.2392578125	-516.4607543945312	1140.66650390625	892.6563720703125	-547.1849365234375	1063.913940429688	877.5226440429688	-589.4087524414062	1064.828857421875	1028.308715820312	-610.0703125	1169.735961914062	710.6138305664062	-528.8049926757812	1097.135009765625	788.0667724609375	-587.5267333984375	1061.251098632812	1513.339599609375	-162.7630310058594	1051.847045898438	1440.79345703125	-89.00325012207031	1027.513305664062	1171.05908203125	-66.88453674316406	1027.4912109375	1142.938354492188	-162.8332977294922	1164.022827148438	916.3029174804688	-94.37334442138672	1096.61083984375	900.240966796875	-32.25606155395508	1042.664916992188	1096.47412109375	-51.38905715942383	1188.746826171875	729.1947021484375	-102.5779190063477	1198.296020507812	806.8587646484375	-76.87458801269531	1140.053955078125	801.184814453125	-29.82315826416016	1018.07958984375	1697.426025390625	-259.7174682617188	1197.470336914062	1735.654907226562	-364.3479614257812	1189.014892578125	1732.514892578125	-265.8403015136719	1021.500305175781	1705.156494140625	-403.8591003417969	1072.212036132812	950.2279663085938	-508.2228393554688	1117.835205078125	947.0062255859375	-140.9479675292969	1215.435302734375	982.376708984375	-218.7991943359375	1193.493896484375	999.767578125	-453.3207092285156	1112.364135742188	505.3092041015625	-460.4027099609375	1091.7255859375	641.7196044921875	-495.6866149902344	1005.221862792969	28.91825866699219	-456.3870849609375	1026.722412109375	275.7684631347656	-475.5135803222656	1226.565551757812	25.47075653076172	-391.314453125	1129.453125	26.50622940063477	-475.4707946777344	936.396484375	36.24229049682617	-402.571533203125	1107.29150390625	510.8341979980469	-192.0073547363281	975.4214477539062	34.96280288696289	-214.9360504150391	1074.615234375	391.1223754882812	-191.9977264404297	1206.267211914062	30.66780090332031	-261.3072509765625	1141.731811523438	36.17401123046875	-290.4682006835938	1124.936767578125	29.80851364135742	-194.4472351074219	918.0183715820312	37.60542678833008	-257.9940795898438	1162.134643554688	799.450927734375	-560.1646728515625	1138.779174804688	779.764404296875	-146.1474151611328	nan	nan	nan	nan	nan	nan	nan	nan	nan	
71	0.7000000000000001	1172.892211914062	44.01853561401367	-365.4353332519531	996.6400146484375	1052.622436523438	-232.0229339599609	982.3365478515625	1046.155639648438	-395.3702392578125	983.2257080078125	1111.11669921875	-321.7577514648438	1195.771606445312	1313.576293945312	-326.451904296875	947.7908325195312	1251.936645507812	-323.8692932128906	980.9864501953125	1521.98681640625	-337.3424377441406	1146.135620117188	1437.009033203125	-331.3803100585938	938.6845703125	1382.2314453125	-255.64111328125	966.8632202148438	1478.43505859375	-434.9827575683594	1069.77392578125	1489.776245117188	-508.8661499023438	1044.5869140625	1363.035766601562	-585.7561645507812	1050.925415039062	1144.432495117188	-605.6707763671875	995.9278564453125	1132.25146484375	-516.34912109375	1140.93017578125	892.7363891601562	-546.9695434570312	1064.251586914062	877.572265625	-589.2627563476562	1065.017456054688	1028.363647460938	-609.91650390625	1170.053100585938	710.5169677734375	-528.4616088867188	1097.559692382812	788.1189575195312	-587.352783203125	1061.19287109375	1513.376708984375	-162.5473175048828	1051.823852539062	1440.875122070312	-88.79911041259766	1027.33056640625	1171.137084960938	-66.70795440673828	1027.35693359375	1142.97216796875	-162.6324920654297	1163.950927734375	916.4119873046875	-94.12501525878906	1096.523803710938	900.31201171875	-32.08218002319336	1042.583618164062	1096.55029296875	-51.16955947875977	1188.735473632812	729.3235473632812	-102.3877563476562	1198.244995117188	806.9124755859375	-76.69822692871094	1140.021240234375	801.2868041992188	-29.65066146850586	1017.909606933594	1697.389892578125	-259.6161804199219	1197.301879882812	1735.752197265625	-364.1794128417969	1188.819213867188	1732.625732421875	-265.6539611816406	1021.375366210938	1705.056518554688	-403.7333679199219	1072.152954101562	950.2344360351562	-508.0225524902344	1117.645751953125	947.032470703125	-140.7203979492188	1215.296264648438	982.396728515625	-218.5414581298828	1193.36083984375	999.8099365234375	-453.0508422851562	1112.603881835938	505.3251037597656	-460.2744140625	1091.947875976562	641.7077026367188	-495.5531616210938	1005.217895507812	28.93428230285645	-456.3777160644531	1026.8935546875	275.7709045410156	-475.4569396972656	1226.579223632812	25.4662036895752	-391.3077087402344	1129.453979492188	26.51159477233887	-475.4708251953125	936.4046020507812	36.2491340637207	-402.5617980957031	1107.316284179688	510.8462829589844	-191.951904296875	975.4100952148438	34.96918106079102	-214.9631652832031	1074.674194335938	391.1006164550781	-191.9158782958984	1206.262084960938	30.66710090637207	-261.3140563964844	1141.733276367188	36.17485046386719	-290.4726257324219	1124.944213867188	29.81599998474121	-194.4523773193359	918.0240478515625	37.62642669677734	-258.0019836425781	1162.566772460938	799.6412353515625	-560.01904296875	1138.772094726562	779.7837524414062	-145.9470672607422	nan	nan	nan	nan	nan	nan	nan	nan	nan	
72	0.71	1172.95263671875	44.10905838012695	-365.3079528808594	996.3589477539062	1052.593017578125	-231.826416015625	982.235595703125	1046.134033203125	-395.1943969726562	983.0399780273438	1111.130737304688	-321.5672912597656	1195.66650390625	1313.5830078125	-326.1787719726562	947.7537841796875	1251.975952148438	-323.7053527832031	980.9816284179688	1522.052734375	-337.1521301269531	1146.043579101562	1437.046875	-331.1798706054688	938.6133422851562	1382.313232421875	-255.4390106201172	966.804931640625	1478.486328125	-434.7621459960938	1069.731079101562	1489.792358398438	-508.6875305175781	1044.605590820312	1363.062744140625	-585.57421875	1050.983154296875	1144.47119140625	-605.5208129882812	995.9265747070312	1132.266235351562	-516.2260131835938	1141.182739257812	892.8326416015625	-546.764404296875	1064.572998046875	877.6244506835938	-589.1195678710938	1065.185791015625	1028.429443359375	-609.7680053710938	1170.364501953125	710.4042358398438	-528.115966796875	1097.973266601562	788.1787719726562	-587.1861572265625	1061.115112304688	1513.411499023438	-162.3151702880859	1051.796142578125	1440.950439453125	-88.58506774902344	1027.159301757812	1171.210083007812	-66.51889038085938	1027.2041015625	1143.004760742188	-162.4255676269531	1163.848754882812	916.4899291992188	-93.87199401855469	1096.453979492188	900.3782958984375	-31.88864135742188	1042.51220703125	1096.620727539062	-50.9369010925293	1188.676391601562	729.414306640625	-102.1960220336914	1198.163330078125	806.95654296875	-76.53075408935547	1139.967651367188	801.3764038085938	-29.47357368469238	1017.710144042969	1697.356689453125	-259.5070495605469	1197.113037109375	1735.838134765625	-364.0083923339844	1188.624389648438	1732.7392578125	-265.4854431152344	1021.228576660156	1704.955932617188	-403.5900573730469	1072.085083007812	950.24609375	-507.8143615722656	1117.494018554688	947.0608520507812	-140.4950561523438	1215.15087890625	982.4324340820312	-218.2804260253906	1193.229614257812	999.8583374023438	-452.7859802246094	1112.837036132812	505.3399353027344	-460.1406860351562	1092.1708984375	641.6986083984375	-495.4125061035156	1005.2177734375	28.94828224182129	-456.3688049316406	1027.05517578125	275.773681640625	-475.4026794433594	1226.589599609375	25.45845603942871	-391.2993469238281	1129.454345703125	26.51813888549805	-475.470458984375	936.4119262695312	36.25596618652344	-402.5543212890625	1107.322631835938	510.85107421875	-191.8946075439453	975.3995971679688	34.97456741333008	-214.9882965087891	1074.72412109375	391.0750122070312	-191.8346099853516	1206.2568359375	30.66623497009277	-261.3218078613281	1141.73583984375	36.17630767822266	-290.4765319824219	1124.950561523438	29.82331466674805	-194.4568481445312	918.0294189453125	37.64467239379883	-258.0078430175781	1162.986083984375	799.8253784179688	-559.8840942382812	1138.766479492188	779.7926635742188	-145.7682952880859	nan	nan	nan	nan	nan	nan	nan	nan	nan	
